<?xml version="1.0" encoding="UTF-8"?>
<svg width="676px" height="483px" viewBox="0 0 676 483" version="1.1" xmlns="http://www.w3.org/2000/svg" xmlns:xlink="http://www.w3.org/1999/xlink">
    <!-- Generator: Sketch 41.2 (35397) - http://www.bohemiancoding.com/sketch -->
    <title>pie</title>
    <desc>Created with Sketch.</desc>
    <defs></defs>
    <g id="Page-1" stroke="none" stroke-width="1" fill="none" fill-rule="evenodd">
        <g id="pie" transform="translate(-2.000000, -7.000000)">
            <path d="M78.5,48.5 L612.5,48.5" id="Line" stroke="#979797" stroke-linecap="square"></path>
            <path id="Line-decoration-1" d="M612.5,48.5 L601.7,45.5 L601.7,51.5 L612.5,48.5 Z" stroke="#979797" stroke-linecap="square"></path>
            <path d="M78.5,48.5 L78.5,455.5" id="Line" stroke="#979797" stroke-linecap="square"></path>
            <path id="Line-decoration-1" d="M78.5,455.5 L81.5,444.7 L75.5,444.7 L78.5,455.5 Z" stroke="#979797" stroke-linecap="square"></path>
            <text id="x" font-family="STKaitiSC-Regular, Kaiti SC" font-size="36" font-weight="normal" fill="#4A4A4A">
                <tspan x="611.932" y="57">x</tspan>
            </text>
            <text id="y" font-family="STKaitiSC-Regular, Kaiti SC" font-size="36" font-weight="normal" fill="#4A4A4A">
                <tspan x="69.238" y="485">y</tspan>
            </text>
            <text id="(0,-0)" font-family="STKaitiSC-Regular, Kaiti SC" font-size="36" font-weight="normal" fill="#4A4A4A">
                <tspan x="0.15" y="38">(0, 0)</tspan>
            </text>
            <circle id="Oval" stroke="#F6A623" stroke-width="36" cx="342" cy="266" r="150"></circle>
            <circle id="Oval" stroke="#F8E81C" stroke-width="36" cx="343" cy="267" r="200"></circle>
            <text id="stroke_width" font-family="STKaitiSC-Regular, Kaiti SC" font-size="12" font-weight="normal" fill="#4A4A4A">
                <tspan x="313.872" y="122">stroke_width</tspan>
            </text>
            <text id="(c1,-r+stroke_width+" font-family="STKaitiSC-Regular, Kaiti SC" font-size="12" font-weight="normal" fill="#4A4A4A">
                <tspan x="265.158" y="280">(c1, r+stroke_width+gap+stroke_width)</tspan>
            </text>
            <path d="M341.5,48.5 L341.5,264.5" id="Line" stroke="#979797" stroke-linecap="square"></path>
            <path d="M78.5,264.5 L340.5,264.5" id="Line" stroke="#979797" stroke-linecap="square" transform="translate(209.500000, 264.500000) scale(-1, -1) translate(-209.500000, -264.500000) "></path>
            <text id="r" font-family="STKaitiSC-Regular, Kaiti SC" font-size="12" font-weight="normal" fill="#4A4A4A">
                <tspan x="348.172" y="202">r</tspan>
            </text>
            <text id="stroke_width" font-family="STKaitiSC-Regular, Kaiti SC" font-size="12" font-weight="normal" fill="#4A4A4A">
                <tspan x="314.372" y="70">stroke_width</tspan>
            </text>
            <text id="gap" font-family="STKaitiSC-Regular, Kaiti SC" font-size="12" font-weight="normal" fill="#4A4A4A">
                <tspan x="331.416" y="95">gap</tspan>
            </text>
            <path d="M458.5,202.5 L555.5,128.5" id="Line" stroke="#979797" stroke-linecap="square"></path>
            <path id="Line-decoration-1" d="M555.5,128.5 L545.093792,132.665434 L548.733014,137.435765 L555.5,128.5 Z" stroke="#979797" stroke-linecap="square"></path>
            <text id="已知圆上一点的坐标，半径和角度，计算目标" font-family="STKaitiSC-Regular, Kaiti SC" font-size="12" font-weight="normal" fill="#4A4A4A">
                <tspan x="426.5" y="119">已知圆上一点的坐标，半径和角度，计算目标点</tspan>
            </text>
            <text id="a1" font-family="STKaitiSC-Regular, Kaiti SC" font-size="12" font-weight="normal" fill="#4A4A4A">
                <tspan x="348.62" y="241">a1</tspan>
            </text>
            <path d="M342.5,134.5 L469.5,77.5" id="Line" stroke="#979797" stroke-linecap="square"></path>
            <path id="Line-decoration-1" d="M469.5,77.5 L458.418492,79.1852857 L460.875303,84.6592315 L469.5,77.5 Z" stroke="#979797" stroke-linecap="square"></path>
            <text id="(c1,-stroke_width*2+" font-family="STKaitiSC-Regular, Kaiti SC" font-size="12" font-weight="normal" fill="#4A4A4A">
                <tspan x="405.242" y="71">(c1, stroke_width*2+gap)</tspan>
            </text>
            <path d="M342.5,264.5 L456.471893,201.966749" id="Line" stroke="#979797" stroke-linecap="square"></path>
            <path d="M341.5,265.5 L387.902535,386.936422" id="Line" stroke="#979797" stroke-linecap="square"></path>
            <text id="(c1,-stroke_width)" font-family="STKaitiSC-Regular, Kaiti SC" font-size="12" font-weight="normal" fill="#4A4A4A">
                <tspan x="403.704" y="16">(c1, stroke_width)</tspan>
            </text>
            <path d="M342.5,83.5 L451.5,23.5" id="Line" stroke="#979797" stroke-linecap="square"></path>
            <path id="Line-decoration-1" d="M451.5,23.5 L440.59202,26.0799158 L443.485383,31.3361928 L451.5,23.5 Z" stroke="#979797" stroke-linecap="square"></path>
            <path d="M340.636719,234.085938 C352.028172,234.569123 355.486481,243.271811 358.929688,252.941406" id="Path-2" stroke="#7ED321"></path>
            <path d="M353.8125,259.332031 C357.291417,276.012443 361.4908,279.59393 354.644531,292.1875" id="Path-3" stroke="#7ED321"></path>
            <path d="M341.484375,212.621094 C369.809289,222.795272 386.085853,250.791 381.023438,280.289063 C378.559804,294.644346 370.989496,301.683811 362.546875,313.121094" id="Path-4" stroke="#417505"></path>
            <text id="a2" font-family="STKaitiSC-Regular, Kaiti SC" font-size="12" font-weight="normal" fill="#4A4A4A">
                <tspan x="357.62" y="270">a2</tspan>
            </text>
        </g>
    </g>
</svg>